<svg xmlns="http://www.w3.org/2000/svg" width="32" height="32" viewBox="0 0 100 100">
  <circle cx="50" cy="50" r="46" fill="none" stroke="#000080" stroke-width="5"/>
  <circle cx="50" cy="50" r="41" fill="none" stroke="#000080" stroke-width="1"/>
  <circle cx="50" cy="50" r="10" fill="none" stroke="#000080" stroke-width="3"/>
  <circle cx="50" cy="50" r="5" fill="#000080"/>
  <g stroke="#000080" stroke-width="2">
    <line x1="50" y1="50" x2="50" y2="9" />
    <line x1="50" y1="50" x2="60.6" y2="10.4" />
    <line x1="50" y1="50" x2="70.5" y2="14.5" />
    <line x1="50" y1="50" x2="79" y2="21" />
    <line x1="50" y1="50" x2="85.5" y2="29.5" />
    <line x1="50" y1="50" x2="89.6" y2="39.4" />
    <line x1="50" y1="50" x2="91" y2="50" />
    <line x1="50" y1="50" x2="89.6" y2="60.6" />
    <line x1="50" y1="50" x2="85.5" y2="70.5" />
    <line x1="50" y1="50" x2="79" y2="79" />
    <line x1="50" y1="50" x2="70.5" y2="85.5" />
    <line x1="50" y1="50" x2="60.6" y2="89.6" />
    <line x1="50" y1="50" x2="50" y2="91" />
    <line x1="50" y1="50" x2="39.4" y2="89.6" />
    <line x1="50" y1="50" x2="29.5" y2="85.5" />
    <line x1="50" y1="50" x2="21" y2="79" />
    <line x1="50" y1="50" x2="14.5" y2="70.5" />
    <line x1="50" y1="50" x2="10.4" y2="60.6" />
    <line x1="50" y1="50" x2="9" y2="50" />
    <line x1="50" y1="50" x2="10.4" y2="39.4" />
    <line x1="50" y1="50" x2="14.5" y2="29.5" />
    <line x1="50" y1="50" x2="21" y2="21" />
    <line x1="50" y1="50" x2="29.5" y2="14.5" />
    <line x1="50" y1="50" x2="39.4" y2="10.4" />
  </g>
</svg>
